<mxfile host="app.diagrams.net" modified="2024-06-21T07:25:02.554Z" agent="Mozilla/5.0 (Windows NT 10.0; Win64; x64) AppleWebKit/537.36 (KHTML, like Gecko) Chrome/126.0.0.0 Safari/537.36 Edg/126.0.0.0" etag="vIWHSrY_jc7L6YHlEzkw" version="24.6.0" type="github">
  <diagram name="第 1 页" id="pWU_-6Wz2jXaUf-WlOzB">
    <mxGraphModel dx="1532" dy="626" grid="0" gridSize="10" guides="1" tooltips="1" connect="1" arrows="1" fold="1" page="0" pageScale="1" pageWidth="827" pageHeight="1169" math="0" shadow="0">
      <root>
        <mxCell id="0" />
        <mxCell id="1" parent="0" />
        <mxCell id="iMf_CKqAdG_c72U2o_C2-107" value="当前体积：8&lt;div&gt;当前价值：9&lt;/div&gt;" style="rounded=1;whiteSpace=wrap;html=1;" vertex="1" parent="1">
          <mxGeometry x="324" y="140" width="90" height="50" as="geometry" />
        </mxCell>
        <mxCell id="iMf_CKqAdG_c72U2o_C2-108" value="当前体积：0&lt;div&gt;当前价值：0&lt;/div&gt;" style="rounded=1;whiteSpace=wrap;html=1;" vertex="1" parent="1">
          <mxGeometry x="990" y="130" width="90" height="50" as="geometry" />
        </mxCell>
        <mxCell id="iMf_CKqAdG_c72U2o_C2-109" value="当前体积：&lt;br&gt;8+3=11&amp;gt;10" style="rounded=1;whiteSpace=wrap;html=1;fillColor=#f8cecc;strokeColor=#b85450;" vertex="1" parent="1">
          <mxGeometry x="240" y="230" width="90" height="50" as="geometry" />
        </mxCell>
        <mxCell id="iMf_CKqAdG_c72U2o_C2-110" value="当前体积：8&lt;div&gt;当前价值：9&lt;/div&gt;" style="rounded=1;whiteSpace=wrap;html=1;" vertex="1" parent="1">
          <mxGeometry x="400" y="230" width="90" height="50" as="geometry" />
        </mxCell>
        <mxCell id="iMf_CKqAdG_c72U2o_C2-111" value="当前体积：3&lt;div&gt;当前价值：2&lt;/div&gt;" style="rounded=1;whiteSpace=wrap;html=1;" vertex="1" parent="1">
          <mxGeometry x="783" y="230" width="90" height="50" as="geometry" />
        </mxCell>
        <mxCell id="iMf_CKqAdG_c72U2o_C2-112" value="当前体积：0&lt;div&gt;当前价值：0&lt;/div&gt;" style="rounded=1;whiteSpace=wrap;html=1;" vertex="1" parent="1">
          <mxGeometry x="1203" y="230" width="90" height="50" as="geometry" />
        </mxCell>
        <mxCell id="iMf_CKqAdG_c72U2o_C2-114" value="当前体积：&lt;br&gt;8+4=12&amp;gt;10" style="rounded=1;whiteSpace=wrap;html=1;fillColor=#f8cecc;strokeColor=#b85450;" vertex="1" parent="1">
          <mxGeometry x="336" y="320" width="90" height="50" as="geometry" />
        </mxCell>
        <mxCell id="iMf_CKqAdG_c72U2o_C2-115" value="当前体积：8&lt;div&gt;当前价值：9&lt;/div&gt;" style="rounded=1;whiteSpace=wrap;html=1;" vertex="1" parent="1">
          <mxGeometry x="463" y="320" width="90" height="50" as="geometry" />
        </mxCell>
        <mxCell id="iMf_CKqAdG_c72U2o_C2-116" value="当前体积：&lt;br&gt;8+3=11&amp;gt;10" style="rounded=1;whiteSpace=wrap;html=1;fillColor=#f8cecc;strokeColor=#b85450;" vertex="1" parent="1">
          <mxGeometry x="414" y="420" width="90" height="50" as="geometry" />
        </mxCell>
        <mxCell id="iMf_CKqAdG_c72U2o_C2-117" value="当前体积：8&lt;div&gt;当前价值：9&lt;/div&gt;" style="rounded=1;whiteSpace=wrap;html=1;fillColor=#d5e8d4;strokeColor=#82b366;" vertex="1" parent="1">
          <mxGeometry x="515" y="420" width="90" height="50" as="geometry" />
        </mxCell>
        <mxCell id="iMf_CKqAdG_c72U2o_C2-118" value="当前体积：7&lt;div&gt;当前价值：6&lt;/div&gt;" style="rounded=1;whiteSpace=wrap;html=1;" vertex="1" parent="1">
          <mxGeometry x="670" y="320" width="90" height="50" as="geometry" />
        </mxCell>
        <mxCell id="iMf_CKqAdG_c72U2o_C2-119" value="当前体积：3&lt;div&gt;当前价值：2&lt;/div&gt;" style="rounded=1;whiteSpace=wrap;html=1;" vertex="1" parent="1">
          <mxGeometry x="890" y="320" width="90" height="50" as="geometry" />
        </mxCell>
        <mxCell id="iMf_CKqAdG_c72U2o_C2-120" value="当前体积：0&lt;div&gt;当前价值：0&lt;/div&gt;" style="rounded=1;whiteSpace=wrap;html=1;" vertex="1" parent="1">
          <mxGeometry x="1308" y="320" width="90" height="50" as="geometry" />
        </mxCell>
        <mxCell id="iMf_CKqAdG_c72U2o_C2-121" value="当前体积：4&lt;div&gt;当前价值：4&lt;/div&gt;" style="rounded=1;whiteSpace=wrap;html=1;" vertex="1" parent="1">
          <mxGeometry x="1099" y="320" width="90" height="50" as="geometry" />
        </mxCell>
        <mxCell id="iMf_CKqAdG_c72U2o_C2-122" value="当前体积：3&lt;div&gt;当前价值：3&lt;/div&gt;" style="rounded=1;whiteSpace=wrap;html=1;" vertex="1" parent="1">
          <mxGeometry x="1259" y="420" width="90" height="50" as="geometry" />
        </mxCell>
        <mxCell id="iMf_CKqAdG_c72U2o_C2-123" value="当前体积：0&lt;div&gt;当前价值：0&lt;/div&gt;" style="rounded=1;whiteSpace=wrap;html=1;" vertex="1" parent="1">
          <mxGeometry x="1357" y="420" width="90" height="50" as="geometry" />
        </mxCell>
        <mxCell id="iMf_CKqAdG_c72U2o_C2-124" value="当前体积：10&lt;div&gt;当前价值：9&lt;/div&gt;" style="rounded=1;whiteSpace=wrap;html=1;fillColor=#d5e8d4;strokeColor=#82b366;" vertex="1" parent="1">
          <mxGeometry x="626" y="420" width="90" height="50" as="geometry" />
        </mxCell>
        <mxCell id="iMf_CKqAdG_c72U2o_C2-125" value="当前体积：7&lt;div&gt;当前价值：6&lt;/div&gt;" style="rounded=1;whiteSpace=wrap;html=1;" vertex="1" parent="1">
          <mxGeometry x="725" y="420" width="90" height="50" as="geometry" />
        </mxCell>
        <mxCell id="iMf_CKqAdG_c72U2o_C2-126" value="当前体积：3&lt;div&gt;当前价值：2&lt;/div&gt;" style="rounded=1;whiteSpace=wrap;html=1;" vertex="1" parent="1">
          <mxGeometry x="939" y="420" width="90" height="50" as="geometry" />
        </mxCell>
        <mxCell id="iMf_CKqAdG_c72U2o_C2-127" value="当前体积：6&lt;div&gt;当前价值：5&lt;/div&gt;" style="rounded=1;whiteSpace=wrap;html=1;" vertex="1" parent="1">
          <mxGeometry x="841" y="420" width="90" height="50" as="geometry" />
        </mxCell>
        <mxCell id="iMf_CKqAdG_c72U2o_C2-128" value="当前体积：7&lt;div&gt;当前价值：7&lt;/div&gt;" style="rounded=1;whiteSpace=wrap;html=1;" vertex="1" parent="1">
          <mxGeometry x="1050" y="420" width="90" height="50" as="geometry" />
        </mxCell>
        <mxCell id="iMf_CKqAdG_c72U2o_C2-129" value="当前体积：4&lt;div&gt;当前价值：4&lt;/div&gt;" style="rounded=1;whiteSpace=wrap;html=1;" vertex="1" parent="1">
          <mxGeometry x="1149" y="420" width="90" height="50" as="geometry" />
        </mxCell>
        <mxCell id="iMf_CKqAdG_c72U2o_C2-130" value="" style="endArrow=classic;html=1;rounded=0;exitX=0.5;exitY=1;exitDx=0;exitDy=0;entryX=0.5;entryY=0;entryDx=0;entryDy=0;" edge="1" parent="1" source="iMf_CKqAdG_c72U2o_C2-121" target="iMf_CKqAdG_c72U2o_C2-128">
          <mxGeometry width="50" height="50" relative="1" as="geometry">
            <mxPoint x="749" y="510" as="sourcePoint" />
            <mxPoint x="719" y="570" as="targetPoint" />
          </mxGeometry>
        </mxCell>
        <mxCell id="iMf_CKqAdG_c72U2o_C2-131" value="" style="endArrow=classic;html=1;rounded=0;exitX=0.5;exitY=1;exitDx=0;exitDy=0;entryX=0.5;entryY=0;entryDx=0;entryDy=0;" edge="1" parent="1" source="iMf_CKqAdG_c72U2o_C2-115" target="iMf_CKqAdG_c72U2o_C2-117">
          <mxGeometry width="50" height="50" relative="1" as="geometry">
            <mxPoint x="249" y="490" as="sourcePoint" />
            <mxPoint x="279" y="540" as="targetPoint" />
          </mxGeometry>
        </mxCell>
        <mxCell id="iMf_CKqAdG_c72U2o_C2-143" value="" style="endArrow=classic;html=1;rounded=0;strokeColor=#FF0000;exitX=0.5;exitY=1;exitDx=0;exitDy=0;entryX=0.5;entryY=0;entryDx=0;entryDy=0;" edge="1" parent="1" source="iMf_CKqAdG_c72U2o_C2-107" target="iMf_CKqAdG_c72U2o_C2-109">
          <mxGeometry width="50" height="50" relative="1" as="geometry">
            <mxPoint x="109" y="335" as="sourcePoint" />
            <mxPoint x="79" y="395" as="targetPoint" />
          </mxGeometry>
        </mxCell>
        <mxCell id="iMf_CKqAdG_c72U2o_C2-144" value="" style="endArrow=classic;html=1;rounded=0;strokeColor=#FF0000;exitX=0.5;exitY=1;exitDx=0;exitDy=0;entryX=0.5;entryY=0;entryDx=0;entryDy=0;" edge="1" parent="1" source="iMf_CKqAdG_c72U2o_C2-110" target="iMf_CKqAdG_c72U2o_C2-114">
          <mxGeometry width="50" height="50" relative="1" as="geometry">
            <mxPoint x="119" y="345" as="sourcePoint" />
            <mxPoint x="89" y="405" as="targetPoint" />
          </mxGeometry>
        </mxCell>
        <mxCell id="iMf_CKqAdG_c72U2o_C2-145" value="" style="endArrow=classic;html=1;rounded=0;strokeColor=#000000;exitX=0.5;exitY=1;exitDx=0;exitDy=0;entryX=0.5;entryY=0;entryDx=0;entryDy=0;" edge="1" parent="1" source="iMf_CKqAdG_c72U2o_C2-118" target="iMf_CKqAdG_c72U2o_C2-124">
          <mxGeometry width="50" height="50" relative="1" as="geometry">
            <mxPoint x="150" y="355" as="sourcePoint" />
            <mxPoint x="120" y="415" as="targetPoint" />
          </mxGeometry>
        </mxCell>
        <mxCell id="iMf_CKqAdG_c72U2o_C2-146" value="" style="endArrow=classic;html=1;rounded=0;strokeColor=#FF0000;exitX=0.5;exitY=1;exitDx=0;exitDy=0;entryX=0.5;entryY=0;entryDx=0;entryDy=0;" edge="1" parent="1" source="iMf_CKqAdG_c72U2o_C2-115" target="iMf_CKqAdG_c72U2o_C2-116">
          <mxGeometry width="50" height="50" relative="1" as="geometry">
            <mxPoint x="139" y="365" as="sourcePoint" />
            <mxPoint x="109" y="425" as="targetPoint" />
          </mxGeometry>
        </mxCell>
        <mxCell id="iMf_CKqAdG_c72U2o_C2-147" value="" style="endArrow=classic;html=1;rounded=0;exitX=0.5;exitY=1;exitDx=0;exitDy=0;entryX=0.5;entryY=0;entryDx=0;entryDy=0;" edge="1" parent="1" source="iMf_CKqAdG_c72U2o_C2-120" target="iMf_CKqAdG_c72U2o_C2-122">
          <mxGeometry width="50" height="50" relative="1" as="geometry">
            <mxPoint x="768" y="520" as="sourcePoint" />
            <mxPoint x="738" y="580" as="targetPoint" />
          </mxGeometry>
        </mxCell>
        <mxCell id="iMf_CKqAdG_c72U2o_C2-148" value="" style="endArrow=classic;html=1;rounded=0;exitX=0.5;exitY=1;exitDx=0;exitDy=0;entryX=0.5;entryY=0;entryDx=0;entryDy=0;" edge="1" parent="1" source="iMf_CKqAdG_c72U2o_C2-110" target="iMf_CKqAdG_c72U2o_C2-115">
          <mxGeometry width="50" height="50" relative="1" as="geometry">
            <mxPoint x="739" y="530" as="sourcePoint" />
            <mxPoint x="709" y="590" as="targetPoint" />
          </mxGeometry>
        </mxCell>
        <mxCell id="iMf_CKqAdG_c72U2o_C2-149" value="" style="endArrow=classic;html=1;rounded=0;exitX=0.5;exitY=1;exitDx=0;exitDy=0;entryX=0.5;entryY=0;entryDx=0;entryDy=0;" edge="1" parent="1" source="iMf_CKqAdG_c72U2o_C2-107" target="iMf_CKqAdG_c72U2o_C2-110">
          <mxGeometry width="50" height="50" relative="1" as="geometry">
            <mxPoint x="749" y="540" as="sourcePoint" />
            <mxPoint x="719" y="600" as="targetPoint" />
          </mxGeometry>
        </mxCell>
        <mxCell id="iMf_CKqAdG_c72U2o_C2-150" value="" style="endArrow=classic;html=1;rounded=0;exitX=0.5;exitY=1;exitDx=0;exitDy=0;entryX=0.5;entryY=0;entryDx=0;entryDy=0;" edge="1" parent="1" source="iMf_CKqAdG_c72U2o_C2-119" target="iMf_CKqAdG_c72U2o_C2-127">
          <mxGeometry width="50" height="50" relative="1" as="geometry">
            <mxPoint x="220" y="500" as="sourcePoint" />
            <mxPoint x="190" y="560" as="targetPoint" />
          </mxGeometry>
        </mxCell>
        <mxCell id="iMf_CKqAdG_c72U2o_C2-151" value="" style="endArrow=classic;html=1;rounded=0;exitX=0.5;exitY=1;exitDx=0;exitDy=0;entryX=0.5;entryY=0;entryDx=0;entryDy=0;" edge="1" parent="1" source="iMf_CKqAdG_c72U2o_C2-118" target="iMf_CKqAdG_c72U2o_C2-125">
          <mxGeometry width="50" height="50" relative="1" as="geometry">
            <mxPoint x="280" y="500" as="sourcePoint" />
            <mxPoint x="310" y="550" as="targetPoint" />
          </mxGeometry>
        </mxCell>
        <mxCell id="iMf_CKqAdG_c72U2o_C2-152" value="" style="endArrow=classic;html=1;rounded=0;exitX=0.5;exitY=1;exitDx=0;exitDy=0;entryX=0.5;entryY=0;entryDx=0;entryDy=0;" edge="1" parent="1" source="iMf_CKqAdG_c72U2o_C2-119" target="iMf_CKqAdG_c72U2o_C2-126">
          <mxGeometry width="50" height="50" relative="1" as="geometry">
            <mxPoint x="290" y="510" as="sourcePoint" />
            <mxPoint x="320" y="560" as="targetPoint" />
          </mxGeometry>
        </mxCell>
        <mxCell id="iMf_CKqAdG_c72U2o_C2-153" value="" style="endArrow=classic;html=1;rounded=0;exitX=0.5;exitY=1;exitDx=0;exitDy=0;entryX=0.5;entryY=0;entryDx=0;entryDy=0;" edge="1" parent="1" source="iMf_CKqAdG_c72U2o_C2-121" target="iMf_CKqAdG_c72U2o_C2-129">
          <mxGeometry width="50" height="50" relative="1" as="geometry">
            <mxPoint x="869" y="570" as="sourcePoint" />
            <mxPoint x="899" y="620" as="targetPoint" />
          </mxGeometry>
        </mxCell>
        <mxCell id="iMf_CKqAdG_c72U2o_C2-154" value="" style="endArrow=classic;html=1;rounded=0;exitX=0.5;exitY=1;exitDx=0;exitDy=0;entryX=0.5;entryY=0;entryDx=0;entryDy=0;" edge="1" parent="1" source="iMf_CKqAdG_c72U2o_C2-120" target="iMf_CKqAdG_c72U2o_C2-123">
          <mxGeometry width="50" height="50" relative="1" as="geometry">
            <mxPoint x="888" y="580" as="sourcePoint" />
            <mxPoint x="918" y="630" as="targetPoint" />
          </mxGeometry>
        </mxCell>
        <mxCell id="iMf_CKqAdG_c72U2o_C2-158" value="" style="endArrow=classic;html=1;rounded=0;entryX=0.5;entryY=0;entryDx=0;entryDy=0;exitX=0.5;exitY=1;exitDx=0;exitDy=0;" edge="1" parent="1" source="iMf_CKqAdG_c72U2o_C2-112" target="iMf_CKqAdG_c72U2o_C2-120">
          <mxGeometry width="50" height="50" relative="1" as="geometry">
            <mxPoint x="620" y="120" as="sourcePoint" />
            <mxPoint x="670" y="70" as="targetPoint" />
          </mxGeometry>
        </mxCell>
        <mxCell id="iMf_CKqAdG_c72U2o_C2-159" value="" style="endArrow=classic;html=1;rounded=0;exitX=0.5;exitY=1;exitDx=0;exitDy=0;entryX=0.5;entryY=0;entryDx=0;entryDy=0;" edge="1" parent="1" source="iMf_CKqAdG_c72U2o_C2-112" target="iMf_CKqAdG_c72U2o_C2-121">
          <mxGeometry width="50" height="50" relative="1" as="geometry">
            <mxPoint x="630" y="130" as="sourcePoint" />
            <mxPoint x="680" y="80" as="targetPoint" />
          </mxGeometry>
        </mxCell>
        <mxCell id="iMf_CKqAdG_c72U2o_C2-160" value="" style="endArrow=classic;html=1;rounded=0;exitX=0.5;exitY=1;exitDx=0;exitDy=0;entryX=0.5;entryY=0;entryDx=0;entryDy=0;" edge="1" parent="1" source="iMf_CKqAdG_c72U2o_C2-111" target="iMf_CKqAdG_c72U2o_C2-119">
          <mxGeometry width="50" height="50" relative="1" as="geometry">
            <mxPoint x="640" y="140" as="sourcePoint" />
            <mxPoint x="690" y="90" as="targetPoint" />
          </mxGeometry>
        </mxCell>
        <mxCell id="iMf_CKqAdG_c72U2o_C2-161" value="" style="endArrow=classic;html=1;rounded=0;exitX=0.5;exitY=1;exitDx=0;exitDy=0;entryX=0.5;entryY=0;entryDx=0;entryDy=0;" edge="1" parent="1" source="iMf_CKqAdG_c72U2o_C2-111" target="iMf_CKqAdG_c72U2o_C2-118">
          <mxGeometry width="50" height="50" relative="1" as="geometry">
            <mxPoint x="650" y="150" as="sourcePoint" />
            <mxPoint x="700" y="100" as="targetPoint" />
          </mxGeometry>
        </mxCell>
        <mxCell id="iMf_CKqAdG_c72U2o_C2-162" value="" style="endArrow=classic;html=1;rounded=0;exitX=0.5;exitY=1;exitDx=0;exitDy=0;entryX=0.5;entryY=0;entryDx=0;entryDy=0;" edge="1" parent="1" source="iMf_CKqAdG_c72U2o_C2-108" target="iMf_CKqAdG_c72U2o_C2-112">
          <mxGeometry width="50" height="50" relative="1" as="geometry">
            <mxPoint x="670" y="150" as="sourcePoint" />
            <mxPoint x="720" y="100" as="targetPoint" />
          </mxGeometry>
        </mxCell>
        <mxCell id="iMf_CKqAdG_c72U2o_C2-163" value="" style="endArrow=classic;html=1;rounded=0;exitX=0.5;exitY=1;exitDx=0;exitDy=0;entryX=0.5;entryY=0;entryDx=0;entryDy=0;" edge="1" parent="1" source="iMf_CKqAdG_c72U2o_C2-108" target="iMf_CKqAdG_c72U2o_C2-111">
          <mxGeometry width="50" height="50" relative="1" as="geometry">
            <mxPoint x="680" y="160" as="sourcePoint" />
            <mxPoint x="730" y="110" as="targetPoint" />
          </mxGeometry>
        </mxCell>
        <mxCell id="iMf_CKqAdG_c72U2o_C2-164" value="" style="endArrow=none;dashed=1;html=1;dashPattern=1 3;strokeWidth=2;rounded=0;" edge="1" parent="1">
          <mxGeometry width="50" height="50" relative="1" as="geometry">
            <mxPoint x="100" y="200" as="sourcePoint" />
            <mxPoint x="1460" y="200" as="targetPoint" />
          </mxGeometry>
        </mxCell>
        <mxCell id="iMf_CKqAdG_c72U2o_C2-165" value="" style="endArrow=none;dashed=1;html=1;dashPattern=1 3;strokeWidth=2;rounded=0;" edge="1" parent="1">
          <mxGeometry width="50" height="50" relative="1" as="geometry">
            <mxPoint x="100" y="300" as="sourcePoint" />
            <mxPoint x="1460" y="300" as="targetPoint" />
          </mxGeometry>
        </mxCell>
        <mxCell id="iMf_CKqAdG_c72U2o_C2-166" value="" style="endArrow=none;dashed=1;html=1;dashPattern=1 3;strokeWidth=2;rounded=0;" edge="1" parent="1">
          <mxGeometry width="50" height="50" relative="1" as="geometry">
            <mxPoint x="100" y="390" as="sourcePoint" />
            <mxPoint x="1460" y="390" as="targetPoint" />
          </mxGeometry>
        </mxCell>
        <mxCell id="iMf_CKqAdG_c72U2o_C2-167" value="" style="endArrow=none;dashed=1;html=1;dashPattern=1 3;strokeWidth=2;rounded=0;" edge="1" parent="1">
          <mxGeometry width="50" height="50" relative="1" as="geometry">
            <mxPoint x="100" y="490" as="sourcePoint" />
            <mxPoint x="1460" y="490" as="targetPoint" />
          </mxGeometry>
        </mxCell>
        <mxCell id="iMf_CKqAdG_c72U2o_C2-169" value="&lt;font style=&quot;font-size: 14px;&quot;&gt;物品1：&lt;/font&gt;&lt;div style=&quot;font-size: 14px;&quot;&gt;&lt;font style=&quot;font-size: 14px;&quot;&gt;体积：8&lt;/font&gt;&lt;/div&gt;&lt;div style=&quot;font-size: 14px;&quot;&gt;&lt;font style=&quot;font-size: 14px;&quot;&gt;价值：9&lt;/font&gt;&lt;/div&gt;" style="text;html=1;align=center;verticalAlign=middle;whiteSpace=wrap;rounded=0;strokeColor=default;" vertex="1" parent="1">
          <mxGeometry x="110" y="120" width="70" height="70" as="geometry" />
        </mxCell>
        <mxCell id="iMf_CKqAdG_c72U2o_C2-170" value="&lt;font style=&quot;font-size: 14px;&quot;&gt;物品2：&lt;/font&gt;&lt;div style=&quot;font-size: 14px;&quot;&gt;&lt;font style=&quot;font-size: 14px;&quot;&gt;体积：3&lt;/font&gt;&lt;/div&gt;&lt;div style=&quot;font-size: 14px;&quot;&gt;&lt;font style=&quot;font-size: 14px;&quot;&gt;价值：2&lt;/font&gt;&lt;/div&gt;" style="text;html=1;align=center;verticalAlign=middle;whiteSpace=wrap;rounded=0;strokeColor=default;" vertex="1" parent="1">
          <mxGeometry x="110" y="210" width="70" height="70" as="geometry" />
        </mxCell>
        <mxCell id="iMf_CKqAdG_c72U2o_C2-171" value="&lt;font style=&quot;font-size: 14px;&quot;&gt;物品3：&lt;/font&gt;&lt;div style=&quot;font-size: 14px;&quot;&gt;&lt;font style=&quot;font-size: 14px;&quot;&gt;体积：4&lt;/font&gt;&lt;/div&gt;&lt;div style=&quot;font-size: 14px;&quot;&gt;&lt;font style=&quot;font-size: 14px;&quot;&gt;价值：4&lt;/font&gt;&lt;/div&gt;" style="text;html=1;align=center;verticalAlign=middle;whiteSpace=wrap;rounded=0;strokeColor=default;" vertex="1" parent="1">
          <mxGeometry x="110" y="310" width="70" height="70" as="geometry" />
        </mxCell>
        <mxCell id="iMf_CKqAdG_c72U2o_C2-172" value="&lt;font style=&quot;font-size: 14px;&quot;&gt;物品4：&lt;/font&gt;&lt;div style=&quot;font-size: 14px;&quot;&gt;&lt;font style=&quot;font-size: 14px;&quot;&gt;体积：3&lt;/font&gt;&lt;/div&gt;&lt;div style=&quot;font-size: 14px;&quot;&gt;&lt;font style=&quot;font-size: 14px;&quot;&gt;价值：3&lt;/font&gt;&lt;/div&gt;" style="text;html=1;align=center;verticalAlign=middle;whiteSpace=wrap;rounded=0;strokeColor=default;" vertex="1" parent="1">
          <mxGeometry x="110" y="400" width="70" height="70" as="geometry" />
        </mxCell>
        <mxCell id="iMf_CKqAdG_c72U2o_C2-174" value="" style="curved=1;endArrow=classic;html=1;rounded=0;strokeColor=#0000CC;" edge="1" parent="1">
          <mxGeometry width="50" height="50" relative="1" as="geometry">
            <mxPoint x="620" y="40" as="sourcePoint" />
            <mxPoint x="1470" y="460" as="targetPoint" />
            <Array as="points">
              <mxPoint x="320" y="100" />
              <mxPoint x="220" y="230" />
              <mxPoint x="230" y="300" />
              <mxPoint x="318" y="300" />
              <mxPoint x="348" y="260" />
              <mxPoint x="348" y="220" />
              <mxPoint x="368" y="200" />
              <mxPoint x="398" y="230" />
              <mxPoint x="388" y="260" />
              <mxPoint x="308" y="340" />
              <mxPoint x="368" y="410" />
              <mxPoint x="418" y="390" />
              <mxPoint x="438" y="350" />
              <mxPoint x="428" y="320" />
              <mxPoint x="438" y="300" />
              <mxPoint x="458" y="310" />
              <mxPoint x="448" y="370" />
              <mxPoint x="428" y="410" />
              <mxPoint x="398" y="420" />
              <mxPoint x="398" y="470" />
              <mxPoint x="440" y="490" />
              <mxPoint x="510" y="470" />
              <mxPoint x="550" y="490" />
              <mxPoint x="590" y="490" />
              <mxPoint x="620" y="470" />
              <mxPoint x="600" y="360" />
              <mxPoint x="510" y="250" />
              <mxPoint x="520" y="150" />
              <mxPoint x="610" y="120" />
              <mxPoint x="690" y="90" />
              <mxPoint x="850" y="110" />
              <mxPoint x="970" y="120" />
              <mxPoint x="950" y="180" />
              <mxPoint x="870" y="190" />
              <mxPoint x="770" y="230" />
              <mxPoint x="690" y="300" />
              <mxPoint x="630" y="360" />
              <mxPoint x="620" y="400" />
              <mxPoint x="620" y="490" />
              <mxPoint x="670" y="500" />
              <mxPoint x="720" y="470" />
              <mxPoint x="760" y="500" />
              <mxPoint x="830" y="480" />
              <mxPoint x="820" y="410" />
              <mxPoint x="770" y="350" />
              <mxPoint x="810" y="310" />
              <mxPoint x="890" y="320" />
              <mxPoint x="840" y="410" />
              <mxPoint x="830" y="450" />
              <mxPoint x="850" y="490" />
              <mxPoint x="880" y="500" />
              <mxPoint x="930" y="470" />
              <mxPoint x="1020" y="510" />
              <mxPoint x="1040" y="470" />
              <mxPoint x="1010" y="340" />
              <mxPoint x="880" y="250" />
              <mxPoint x="980" y="220" />
              <mxPoint x="1080" y="210" />
              <mxPoint x="1140" y="220" />
              <mxPoint x="1180" y="240" />
              <mxPoint x="1190" y="270" />
              <mxPoint x="1160" y="300" />
              <mxPoint x="1080" y="310" />
              <mxPoint x="1040" y="410" />
              <mxPoint x="1050" y="490" />
              <mxPoint x="1070" y="500" />
              <mxPoint x="1150" y="470" />
              <mxPoint x="1210" y="500" />
              <mxPoint x="1240" y="480" />
              <mxPoint x="1250" y="450" />
              <mxPoint x="1240" y="400" />
              <mxPoint x="1210" y="390" />
              <mxPoint x="1200" y="330" />
              <mxPoint x="1250" y="300" />
              <mxPoint x="1320" y="320" />
              <mxPoint x="1290" y="400" />
              <mxPoint x="1250" y="410" />
              <mxPoint x="1250" y="500" />
              <mxPoint x="1330" y="510" />
              <mxPoint x="1340" y="470" />
              <mxPoint x="1450" y="520" />
            </Array>
          </mxGeometry>
        </mxCell>
        <mxCell id="iMf_CKqAdG_c72U2o_C2-175" value="物品0" style="rounded=1;whiteSpace=wrap;html=1;" vertex="1" parent="1">
          <mxGeometry x="640" y="10" width="120" height="60" as="geometry" />
        </mxCell>
        <mxCell id="iMf_CKqAdG_c72U2o_C2-177" value="" style="endArrow=classic;html=1;rounded=0;exitX=0.5;exitY=1;exitDx=0;exitDy=0;entryX=0.5;entryY=0;entryDx=0;entryDy=0;" edge="1" parent="1" source="iMf_CKqAdG_c72U2o_C2-175" target="iMf_CKqAdG_c72U2o_C2-108">
          <mxGeometry width="50" height="50" relative="1" as="geometry">
            <mxPoint x="230" y="90" as="sourcePoint" />
            <mxPoint x="280" y="40" as="targetPoint" />
          </mxGeometry>
        </mxCell>
        <mxCell id="iMf_CKqAdG_c72U2o_C2-178" value="" style="endArrow=classic;html=1;rounded=0;exitX=0.5;exitY=1;exitDx=0;exitDy=0;entryX=0.5;entryY=0;entryDx=0;entryDy=0;" edge="1" parent="1" source="iMf_CKqAdG_c72U2o_C2-175" target="iMf_CKqAdG_c72U2o_C2-107">
          <mxGeometry width="50" height="50" relative="1" as="geometry">
            <mxPoint x="240" y="100" as="sourcePoint" />
            <mxPoint x="290" y="50" as="targetPoint" />
          </mxGeometry>
        </mxCell>
      </root>
    </mxGraphModel>
  </diagram>
</mxfile>
